# xmcd
#
# Track frame offsets:
#	150
#	21162
#	55322
#	72225
#	94820
#	127192
#	157045
#	177905
#	199425
#	220372
#	243405
#	267095
#	283717
#	311642
#
# Disc length: 4570 seconds
#
# Revision: 0
# Processed by: cddbd v1.5.1PL0 Copyright (c) Steve Scherf et al.
# Submitted via: dBpowerAMP V4.0
#
DISCID=db11d80e
DTITLE=Various Artist - Smooth Soul Classics [CD2)
DYEAR=2001
DGENRE=Soul
TTITLE0=Friends - Amii Stewart
TTITLE1=Mind Blowing Decisions - Heatwave
TTITLE2=So Amazing - Luther Vandross
TTITLE3=Reasons - Earth Wind and Fire
TTITLE4=Rock Me Tonight (For Old Times Sake) - Freddie Jackson
TTITLE5=There's Nothing Like This - Omar
TTITLE6=My One Temptation - Mica Paris
TTITLE7=What You Won't Do For Love - Bobby Caldwell
TTITLE8=Nights Over Egypt - The Jones Girls
TTITLE9=My Love Don't Come Easy - Jean Carne
TTITLE10=Risin' To The Top (Give It All You Got) - Keni Burke
TTITLE11=Give Me The Night (Chill Night Remix) - Randy Crawford
TTITLE12=Love Will Find A Way - Lionel Richie
TTITLE13=Inherit The Wind - Wilton Felder
EXTD=
EXTT0=
EXTT1=
EXTT2=
EXTT3=
EXTT4=
EXTT5=
EXTT6=
EXTT7=
EXTT8=
EXTT9=
EXTT10=
EXTT11=
EXTT12=
EXTT13=
PLAYORDER=
